<?xml version="1.0" encoding="utf-8"?>
<!-- Generator: Adobe Illustrator 23.0.0, SVG Export Plug-In . SVG Version: 6.00 Build 0)  -->
<svg version="1.1" id="Layer_1" xmlns="http://www.w3.org/2000/svg" xmlns:xlink="http://www.w3.org/1999/xlink" x="0px" y="0px"
	 viewBox="0 0 51 51" style="enable-background:new 0 0 51 51;" xml:space="preserve">
<path d="M41.7,39.1l-6-6c4.7-6,4.2-14.6-1.2-20c-2.8-2.8-6.6-4.4-10.7-4.4s-7.8,1.6-10.7,4.4s-4.4,6.6-4.4,10.7s1.6,7.8,4.4,10.7
	s6.6,4.4,10.7,4.4c3.3,0,6.6-1.1,9.3-3.2l6,6.1c0.4,0.4,0.8,0.5,1.3,0.5s0.9-0.2,1.3-0.5C42.5,41,42.5,39.9,41.7,39.1z M35.2,23.8
	c0,3-1.2,5.9-3.3,8s-5,3.3-8,3.3s-5.9-1.2-8-3.3s-3.3-5-3.3-8c0-3,1.2-5.9,3.3-8s5-3.3,8-3.3c3,0,5.9,1.2,8,3.3S35.2,20.8,35.2,23.8
	z"/>
</svg>
