<?xml version="1.0" encoding="utf-8"?>
<!-- Generator: Adobe Illustrator 23.0.0, SVG Export Plug-In . SVG Version: 6.00 Build 0)  -->
<svg version="1.1" id="Layer_1" xmlns="http://www.w3.org/2000/svg" xmlns:xlink="http://www.w3.org/1999/xlink" x="0px" y="0px"
	 viewBox="0 0 42.5 42.5" style="enable-background:new 0 0 42.5 42.5;" xml:space="preserve">
<g>
	<path d="M35.4,10.8c0.1,0,0.1,0,0.3,0c0.3,0.1,0.6,0.2,0.7,0.5c0.1,0.1,0.2,0.3,0.3,0.4c0.1,0.2,0.1,0.3,0.1,0.5
		c0,0.6-0.3,1.1-0.8,1.4c-0.1,0.1-0.3,0.1-0.5,0.2c-0.1,0-0.1,0-0.3,0h-28c-0.1,0-0.1,0-0.3,0c-0.3,0-0.6-0.2-0.8-0.4
		c-0.1-0.1-0.2-0.3-0.3-0.4c-0.1-0.2-0.1-0.3-0.1-0.5c-0.1-0.5,0.1-0.9,0.5-1.3c0.1-0.1,0.2-0.2,0.3-0.2c0.1-0.1,0.3-0.1,0.5-0.2
		c0.1,0,0.1,0,0.3,0h28C35.3,10.8,35.3,10.8,35.4,10.8z"/>
	<path d="M35.4,19.8c0.1,0,0.1,0,0.3,0c0.3,0.1,0.6,0.2,0.7,0.5c0.1,0.1,0.2,0.3,0.3,0.4c0.2,0.5,0.1,1.1-0.3,1.5
		c-0.1,0.1-0.2,0.2-0.4,0.3c-0.1,0.1-0.3,0.1-0.5,0.2c-0.1,0-0.1,0-0.3,0h-28c-0.1,0-0.1,0-0.3,0c-0.2,0-0.3-0.1-0.5-0.2
		c-0.4-0.2-0.7-0.7-0.8-1.1c0-0.1,0-0.3,0-0.4c0-0.2,0.1-0.3,0.1-0.5c0.1-0.2,0.2-0.3,0.3-0.4C6.4,20,6.7,19.8,7,19.8
		c0.1,0,0.1,0,0.3,0h28C35.3,19.8,35.3,19.8,35.4,19.8z"/>
	<path d="M35.4,28.8c0.1,0,0.1,0,0.3,0c0.3,0.1,0.6,0.2,0.7,0.5c0.4,0.4,0.5,1,0.3,1.5c-0.1,0.2-0.2,0.3-0.3,0.4s-0.2,0.2-0.4,0.3
		c-0.1,0.1-0.3,0.1-0.5,0.2c-0.1,0-0.1,0-0.3,0h-28c-0.1,0-0.1,0-0.3,0c-0.3,0-0.6-0.2-0.8-0.4C6.1,31.3,6,31.2,6,31
		c-0.2-0.4-0.3-0.9-0.1-1.3c0.1-0.2,0.2-0.3,0.3-0.4c0.1-0.1,0.2-0.2,0.4-0.3c0.1-0.1,0.3-0.1,0.5-0.2c0.1,0,0.1,0,0.3,0h28
		C35.3,28.8,35.3,28.8,35.4,28.8z"/>
</g>
</svg>
