<?xml version="1.0" encoding="utf-8"?>
<!-- Generator: Adobe Illustrator 23.0.0, SVG Export Plug-In . SVG Version: 6.00 Build 0)  -->
<svg version="1.1" id="Layer_1" xmlns="http://www.w3.org/2000/svg" xmlns:xlink="http://www.w3.org/1999/xlink" x="0px" y="0px"
	 viewBox="0 0 31.2 31.2" style="enable-background:new 0 0 31.2 31.2;" xml:space="preserve">
<title>dfb-web-45 copy 4</title>
<path d="M28.7,2.4c-0.8-0.8-2-0.8-2.8,0c0,0,0,0,0,0L15.6,12.8L5.3,2.4c-0.8-0.8-2-0.8-2.8,0s-0.8,2,0,2.8l10.3,10.3L2.4,25.9
	c-0.8,0.8-0.8,2,0,2.8c0.4,0.4,0.9,0.6,1.4,0.6c0.5,0,1-0.2,1.4-0.6l10.3-10.3l10.3,10.3c0.4,0.4,0.9,0.6,1.4,0.6c1.1,0,2-0.9,2-2
	c0-0.5-0.2-1-0.6-1.4L18.4,15.6L28.7,5.3C29.5,4.5,29.5,3.2,28.7,2.4C28.7,2.4,28.7,2.4,28.7,2.4z"/>
</svg>
